<?xml version="1.0" encoding="UTF-8"?>
<svg id="Layer_1" data-name="Layer 1" xmlns="http://www.w3.org/2000/svg" viewBox="0 0 489.82 489.82">
  <defs>
    <style>
      .cls-1 {
        opacity: .4;
      }

      .cls-1, .cls-2 {
        fill: #fff;
        stroke-width: 0px;
      }
    </style>
  </defs>
  <circle class="cls-1" cx="244.91" cy="244.91" r="244.91"/>
  <g>
    <path class="cls-2" d="M336.75,223.61c.03,11.11-3.11,22.06-9.18,31.98-7.2,11.88-18.27,21.87-31.97,28.86-13.7,6.99-29.48,10.69-45.59,10.69-13.47.03-26.75-2.57-38.78-7.57l-58.17,15.99,19.39-47.97c-6.07-9.91-9.22-20.87-9.18-31.98,0-13.28,4.5-26.3,12.97-37.59,8.47-11.3,20.59-20.42,34.99-26.36,12.02-5.01,25.31-7.6,38.78-7.57h5.1c21.27.97,41.36,8.37,56.42,20.79,15.06,12.42,24.04,28.99,25.21,46.53v4.21Z"/>
    <path class="cls-2" d="M316.78,235.48v4.72h39.93v-4.72h-39.93ZM299.45,202.63c11.34,10.48,16.7,23.06,17.39,34.6l39.82-3.51c-1.66-27.78-14.25-52.34-33.04-69.7l-24.17,38.61ZM254.28,184.26c17.72.9,33.75,7.82,45.17,18.37l24.17-38.61c-18.71-17.29-42.86-26.97-67.67-28.24l-1.67,48.47ZM250.01,184.28h5.1v-48.52h-5.1v48.52ZM218.39,191.15c9.62-4.49,20.46-6.9,31.58-6.87l.08-48.52c-15.82-.04-31.55,3.37-45.98,10.1l14.32,45.29ZM191.73,213.36c5.94-8.88,14.98-16.81,26.6-22.17l-14.19-45.35c-17.2,7.94-32.39,20.48-43.39,36.92l30.98,30.6ZM183.24,240.2c0-8.77,2.62-18.06,8.49-26.85l-30.98-30.6c-11.07,16.54-17.43,36.43-17.44,57.43l39.93.02ZM189.09,262.61c-4.05-7.41-5.87-15.04-5.85-22.34l-39.93-.17c-.05,17.6,4.42,34.53,12.52,49.34l33.26-26.84ZM171.35,339.53l19.39-53.76-36.57-19.47-19.39,53.76,36.57,19.47ZM206.33,288.36l-58.17,17.92,9.81,47.03,58.17-17.92-9.81-47.03ZM249.97,296.11c-11.12.03-21.96-2.38-31.58-6.87l-14.32,45.29c14.42,6.73,30.16,10.14,45.98,10.1l-.08-48.52ZM287.1,286.43c-10.87,6.22-23.73,9.67-37.1,9.68v48.52c18.86,0,37.57-4.85,54.09-14.29l-17-43.9ZM310.88,262.71c-4.88,9.03-12.89,17.49-23.78,23.71l17,43.9c16.51-9.44,30.64-23.37,40.15-40.98l-33.37-26.64ZM316.78,240.28c.02,7.3-1.8,14.93-5.85,22.34l33.26,26.84c8.09-14.81,12.57-31.74,12.52-49.34l-39.93.17ZM336.75,235.48h19.96c0-.59-.02-1.17-.05-1.75l-19.91,1.75ZM255.11,160.02l.84-24.24c-.28-.01-.56-.02-.84-.02v24.26ZM250.01,160.02l-.04,24.26h.04v-24.26ZM211.23,168.51l7.09,22.67.07-.03-7.16-22.64ZM163.27,240.19l19.96.08v-.07h-19.96ZM172.46,276.03l18.29,9.74c2.73-7.56,2.1-16.28-1.65-23.15l-16.63,13.42ZM153.07,329.8l-18.29-9.74c-3.06,8.49-1.87,18.35,3.06,25.42,4.93,7.07,12.75,10.11,20.14,7.83l-4.91-23.51ZM211.23,311.87l7.16-22.64c-3.85-1.8-8.07-2.1-12.07-.87l4.91,23.51ZM250.01,320.36v-24.26h-.04l.04,24.26ZM327.56,276.03l-16.63-13.42-.05.1,16.68,13.32ZM336.75,240.19h-19.96v.08l19.96-.08Z"/>
  </g>
</svg>