<?xml version="1.0" encoding="UTF-8"?>
<svg id="Layer_1" data-name="Layer 1" xmlns="http://www.w3.org/2000/svg" viewBox="0 0 497.4 497.4">
  <defs>
    <style>
      .cls-1 {
        opacity: .4;
      }

      .cls-1, .cls-2 {
        fill: #fff;
        stroke-width: 0px;
      }
    </style>
  </defs>
  <circle class="cls-1" cx="248.7" cy="248.7" r="248.7"/>
  <path class="cls-2" d="M184.76,228.67v69.87c0,4.78,1.75,9.47,5.05,13.54,3.3,4.07,8.04,7.36,13.66,9.49l.85.32c9.39,3.57,19.74,5.43,30.23,5.43h91.62c7.82,0,15.41-2.06,21.46-5.83,6.05-3.77,10.2-9.02,11.73-14.86l20.3-77.21c.98-3.73.86-7.59-.35-11.28-1.21-3.69-3.49-7.14-6.66-10.08-3.17-2.94-7.17-5.32-11.69-6.95-4.52-1.63-9.47-2.47-14.47-2.47h-60.22v-51.47c0-6.83-3.56-13.37-9.91-18.2s-14.95-7.54-23.92-7.54c-4.49,0-8.79,1.36-11.96,3.77-3.17,2.41-4.95,5.69-4.95,9.1v8.58c0,11.14-4.75,21.97-13.53,30.88l-23.68,24.01c-8.78,8.91-13.53,19.75-13.53,30.88ZM117.09,230.82c0-2.54.66-5.04,1.93-7.39,1.27-2.34,3.14-4.47,5.5-6.26,2.36-1.79,5.15-3.22,8.23-4.18,3.08-.97,6.38-1.47,9.71-1.47s6.63.5,9.71,1.47c3.08.97,5.88,2.39,8.23,4.18,2.36,1.79,4.23,3.92,5.5,6.26,1.28,2.34,1.93,4.85,1.93,7.39v77.21c0,5.12-2.67,10.03-7.43,13.65-4.76,3.62-11.21,5.65-17.94,5.65s-13.18-2.03-17.94-5.65c-4.76-3.62-7.43-8.53-7.43-13.65v-77.21Z"/>
</svg>