<?xml version="1.0" encoding="UTF-8"?>
<svg id="Layer_1" data-name="Layer 1" xmlns="http://www.w3.org/2000/svg" viewBox="0 0 487.35 487.35">
  <defs>
    <style>
      .cls-1 {
        opacity: .4;
      }

      .cls-1, .cls-2 {
        fill: #fff;
        stroke-width: 0px;
      }
    </style>
  </defs>
  <circle class="cls-1" cx="243.68" cy="243.68" r="243.68"/>
  <path class="cls-2" d="M316.78,262.21c6.46,0,12.66-1.95,17.23-5.43s7.14-8.19,7.14-13.11-2.57-9.63-7.14-13.11c-4.57-3.48-10.77-5.43-17.23-5.43s-12.66,1.95-17.23,5.43c-4.57,3.48-7.14,8.19-7.14,13.11s2.57,9.63,7.14,13.11c4.57,3.48,10.77,5.43,17.23,5.43ZM268.04,243.68c0,4.92-2.57,9.63-7.14,13.11-4.57,3.48-10.77,5.43-17.23,5.43s-12.66-1.95-17.23-5.43c-4.57-3.48-7.14-8.19-7.14-13.11s2.57-9.63,7.14-13.11c4.57-3.48,10.77-5.43,17.23-5.43s12.66,1.95,17.23,5.43c4.57,3.48,7.14,8.19,7.14,13.11ZM194.94,243.68c0,4.92-2.57,9.63-7.14,13.11-4.57,3.48-10.77,5.43-17.23,5.43s-12.66-1.95-17.23-5.43c-4.57-3.48-7.14-8.19-7.14-13.11s2.57-9.63,7.14-13.11c4.57-3.48,10.77-5.43,17.23-5.43s12.66,1.95,17.23,5.43c4.57,3.48,7.14,8.19,7.14,13.11Z"/>
</svg>